<?xml version="1.0" encoding="UTF-8"?>
<svg width="26px" height="22px" viewBox="0 0 26 22" version="1.1" xmlns="http://www.w3.org/2000/svg" xmlns:xlink="http://www.w3.org/1999/xlink">
    <!-- Generator: Sketch 46.1 (44463) - http://www.bohemiancoding.com/sketch -->
    <title>icon-more</title>
    <desc>Created with Sketch.</desc>
    <defs></defs>
    <g id="Page-1" stroke="none" stroke-width="1" fill="none" fill-rule="evenodd">
        <g id="icon-more" fill="#151515">
            <path d="M10,11 C10,10.1666625 10.2916637,9.45833625 10.875,8.875 C11.4583362,8.29166375 12.1666625,8 13,8 C13.8333375,8 14.5416638,8.29166375 15.125,8.875 C15.7083363,9.45833625 16,10.1666625 16,11 C16,11.8333375 15.7083363,12.5416638 15.125,13.125 C14.5416638,13.7083363 13.8333375,14 13,14 C12.1666625,14 11.4583362,13.7083363 10.875,13.125 C10.2916637,12.5416638 10,11.8333375 10,11 Z M1,11 C1,10.1666625 1.29166375,9.45833625 1.875,8.875 C2.45833625,8.29166375 3.1666625,8 4,8 C4.8333375,8 5.54166375,8.29166375 6.125,8.875 C6.70833625,9.45833625 7,10.1666625 7,11 C7,11.8333375 6.70833625,12.5416638 6.125,13.125 C5.54166375,13.7083363 4.8333375,14 4,14 C3.1666625,14 2.45833625,13.7083363 1.875,13.125 C1.29166375,12.5416638 1,11.8333375 1,11 Z M19,11 C19,10.1666625 19.2916637,9.45833625 19.875,8.875 C20.4583362,8.29166375 21.1666625,8 22,8 C22.8333375,8 23.5416638,8.29166375 24.125,8.875 C24.7083363,9.45833625 25,10.1666625 25,11 C25,11.8333375 24.7083363,12.5416638 24.125,13.125 C23.5416638,13.7083363 22.8333375,14 22,14 C21.1666625,14 20.4583362,13.7083363 19.875,13.125 C19.2916637,12.5416638 19,11.8333375 19,11 Z" id="ellipsis"></path>
        </g>
    </g>
</svg>