<?xml version="1.0" encoding="UTF-8"?>
<svg width="26px" height="22px" viewBox="0 0 26 22" version="1.1" xmlns="http://www.w3.org/2000/svg" xmlns:xlink="http://www.w3.org/1999/xlink">
    <!-- Generator: Sketch 46.1 (44463) - http://www.bohemiancoding.com/sketch -->
    <title>icon-share</title>
    <desc>Created with Sketch.</desc>
    <defs></defs>
    <g id="Page-1" stroke="none" stroke-width="1" fill="none" fill-rule="evenodd">
        <g id="icon-share" fill-rule="nonzero" fill="#151515">
            <path d="M15.9470849,1.69689628 L25.4639089,10.5899259 L15.938043,19.5083725 L15.938043,17.2022708 C15.938043,16.7390493 15.938043,16.6788906 15.938043,14.9174931 C12.0997906,14.6780182 7.61606065,15.9844788 2.49075633,18.8712969 L-0.148876497,20.3580651 L1.08699045,17.5920618 C3.53830777,12.1057497 8.52260986,8.41521184 15.9470849,6.51883838 L15.9470849,1.69689628 Z M17.9470849,6.30310372 L17.9470849,8.09716772 L17.174545,8.27761981 C11.3675508,9.63403417 7.19058313,12.0552043 4.59162894,15.540228 C9.20598041,13.3932982 13.3627251,12.5440091 17.0645609,13.0161517 L17.938043,13.127558 L17.938043,14.008116 C17.938043,14.7481603 17.938043,15.2824541 17.938043,15.679642 L22.5360911,10.5913167 L17.9470849,6.30310372 Z" id="Path-2-Copy"></path>
        </g>
    </g>
</svg>